<?xml version="1.0" encoding="UTF-8" standalone="no"?>
<svg
   xmlns:dc="http://purl.org/dc/elements/1.1/"
   xmlns:cc="http://creativecommons.org/ns#"
   xmlns:rdf="http://www.w3.org/1999/02/22-rdf-syntax-ns#"
   xmlns:svg="http://www.w3.org/2000/svg"
   xmlns="http://www.w3.org/2000/svg"
   xmlns:sodipodi="http://sodipodi.sourceforge.net/DTD/sodipodi-0.dtd"
   xmlns:inkscape="http://www.inkscape.org/namespaces/inkscape"
   width="196mm"
   height="135mm"
   viewBox="0 0 196 135"
   version="1.1"
   id="svg8"
   inkscape:version="1.0.1 (0767f8302a, 2020-10-17)"
   sodipodi:docname="icon.svg">
  <defs
     id="defs2" />
  <sodipodi:namedview
     id="base"
     pagecolor="#ffffff"
     bordercolor="#666666"
     borderopacity="1.0"
     inkscape:pageopacity="0.0"
     inkscape:pageshadow="2"
     inkscape:zoom="0.98994949"
     inkscape:cx="235.47294"
     inkscape:cy="365.82439"
     inkscape:document-units="mm"
     inkscape:current-layer="layer1"
     inkscape:document-rotation="0"
     showgrid="false"
     inkscape:snap-grids="true"
     inkscape:snap-page="false"
     showguides="true"
     inkscape:guide-bbox="true"
     inkscape:window-width="1920"
     inkscape:window-height="1056"
     inkscape:window-x="0"
     inkscape:window-y="0"
     inkscape:window-maximized="1" />
  <metadata
     id="metadata5">
    <rdf:RDF>
      <cc:Work
         rdf:about="">
        <dc:format>image/svg+xml</dc:format>
        <dc:type
           rdf:resource="http://purl.org/dc/dcmitype/StillImage" />
        <dc:title></dc:title>
      </cc:Work>
    </rdf:RDF>
  </metadata>
  <g
     inkscape:label="Layer 1"
     inkscape:groupmode="layer"
     id="layer1">
    <path
       style="fill:#b7b395;fill-opacity:1;stroke:#000000;stroke-width:4;stroke-linecap:round;stroke-linejoin:round;stroke-miterlimit:4;stroke-dasharray:none;stroke-opacity:1;paint-order:normal"
       d="M 24.18279,43.122529 6.2002692,54.8778 v 28.174077 l 20.5173638,9.58553"
       id="path1075"
       sodipodi:nodetypes="cccc" />
    <path
       style="fill:#b7b395;fill-opacity:1;stroke:#000000;stroke-width:4;stroke-linecap:round;stroke-linejoin:round;stroke-miterlimit:4;stroke-dasharray:none;stroke-opacity:1;paint-order:normal"
       d="M 170.52548,43.147876 188.508,54.903147 v 28.17408 l -20.51736,9.58553"
       id="path1075-6"
       sodipodi:nodetypes="cccc" />
    <ellipse
       style="fill:#7e00c8;fill-opacity:1;fill-rule:evenodd;stroke:#000000;stroke-width:4.50752;stroke-miterlimit:4;stroke-dasharray:none;stroke-opacity:1"
       id="path10"
       cx="96.809059"
       cy="65.818497"
       rx="78.125626"
       ry="60.432945" />
    <path
       style="fill:#62cdf6;fill-opacity:1;stroke:none;stroke-width:4.04061;stroke-linecap:round;stroke-linejoin:round;stroke-miterlimit:4;stroke-dasharray:none;stroke-opacity:1;paint-order:normal"
       d="m 89.250174,123.57793 c -6.138365,-0.48066 -12.732395,-1.66539 -18.708867,-3.36135 -3.953481,-1.1219 -4.171855,-1.22331 -4.340847,-2.01589 -0.07147,-0.3352 -0.562829,-2.59394 -1.091911,-5.01941 -2.644074,-12.12126 -4.433602,-26.733103 -5.145521,-42.014189 l -0.183013,-3.928285 0.770247,-0.17158 c 2.964085,-0.660278 4.913191,-1.684697 6.805192,-3.576695 3.971449,-3.971449 4.859467,-9.856386 2.259544,-14.974134 -1.486855,-2.926754 -5.287634,-5.85239 -8.227673,-6.333214 -1.198092,-0.19594 -1.170472,0.0708 -0.594085,-5.737627 0.564414,-5.687814 1.586447,-12.6149 2.550453,-17.286367 1.352011,-6.551684 0.853856,-5.759971 4.331801,-6.88445 6.076394,-1.964603 13.747864,-3.5049517 20.505602,-4.1173086 4.566537,-0.4137978 13.814514,-0.3436065 18.505974,0.1404593 5.1548,0.5318734 10.273,1.4597671 14.95861,2.7118923 l 3.66403,0.979132 0.80499,3.489931 c 1.5017,6.510491 2.56433,13.093163 3.35576,20.788029 0.59791,5.813298 0.60741,5.719239 -0.59758,5.916309 -2.91001,0.475914 -6.74268,3.406415 -8.18967,6.261909 -4.01324,7.919744 0.22632,16.664882 9.02815,18.622772 l 0.77165,0.171648 -0.18309,4.061566 c -0.57388,12.730348 -2.00348,25.598104 -4.05898,36.534812 -0.79499,4.22987 -2.48556,11.97059 -2.67541,12.25002 -0.11292,0.1662 -5.0331,1.36993 -7.85567,1.9219 -8.49354,1.66095 -18.054477,2.2283 -26.459686,1.57012 z M 102.19724,98.246009 c 3.26912,-0.879001 5.90575,-2.294694 7.83314,-4.20587 1.28232,-1.271537 1.67044,-1.836012 1.67044,-2.429488 0,-1.927998 -1.46139,-1.905686 -3.2484,0.04959 -1.61815,1.770517 -4.57588,3.344238 -7.63298,4.061282 -2.869327,0.673 -8.813315,0.661358 -11.435633,-0.02241 -3.230131,-0.842238 -5.610579,-2.100241 -7.362957,-3.891119 -1.589413,-1.62434 -2.452679,-1.979236 -3.140734,-1.291179 -1.557916,1.557916 2.753181,5.573199 7.830998,7.293652 2.839032,0.961916 4.710668,1.187632 9.087162,1.095901 3.311562,-0.06941 4.755194,-0.218395 6.398964,-0.660371 z"
       id="path1245" />
    <path
       id="path1081"
       style="fill:none;stroke:#000000;stroke-width:2.5;stroke-linecap:butt;stroke-linejoin:miter;stroke-miterlimit:4;stroke-dasharray:none;stroke-opacity:1"
       d="m 58.41057,65.869501 c 0.471181,20.015906 3.083571,39.627319 6.903241,54.338119" />
    <path
       id="path1111"
       style="fill:none;stroke:#000000;stroke-width:2.5;stroke-linecap:butt;stroke-linejoin:miter;stroke-miterlimit:4;stroke-dasharray:none;stroke-opacity:1"
       d="m 63.958163,10.503804 c -2.706555,9.80286 -4.344469,20.995251 -5.107559,32.644072" />
    <circle
       style="fill:#ffffff;fill-opacity:1;stroke:#000000;stroke-width:2.5;stroke-linecap:round;stroke-linejoin:bevel;stroke-miterlimit:4;stroke-dasharray:none;stroke-opacity:1"
       id="path1083"
       cx="58.404118"
       cy="54.50864"
       r="11.359909" />
    <circle
       style="fill:none;stroke:#000000;stroke-width:2.5;stroke-linecap:round;stroke-linejoin:bevel;stroke-miterlimit:4;stroke-dasharray:none;stroke-opacity:1"
       id="path1148"
       sodipodi:type="arc"
       sodipodi:cx="95.160912"
       sodipodi:cy="88.209717"
       sodipodi:rx="16.27416"
       sodipodi:ry="9.5292444"
       sodipodi:start="0.34906585"
       sodipodi:end="2.7925268"
       sodipodi:open="true"
       sodipodi:arc-type="arc"
       d="M 110.45362,91.46891 A 16.27416,9.5292444 0 0 1 95.160912,97.738961 16.27416,9.5292444 0 0 1 79.868203,91.46891" />
    <circle
       style="fill:#000000;fill-opacity:1;stroke:none;stroke-width:2.5;stroke-linecap:round;stroke-linejoin:bevel;stroke-miterlimit:4;stroke-dasharray:none;stroke-opacity:1"
       id="path1152"
       cx="58.557831"
       cy="54.347507"
       r="7.2754445" />
    <path
       id="path1081-5"
       style="fill:none;stroke:#000000;stroke-width:2.5;stroke-linecap:butt;stroke-linejoin:miter;stroke-miterlimit:4;stroke-dasharray:none;stroke-opacity:1"
       d="m 131.86633,65.8695 c -0.47118,20.015907 -3.08357,39.62731 -6.90324,54.33812" />
    <path
       id="path1111-6"
       style="fill:none;stroke:#000000;stroke-width:2.5;stroke-linecap:butt;stroke-linejoin:miter;stroke-miterlimit:4;stroke-dasharray:none;stroke-opacity:1"
       d="m 126.31874,10.503803 c 2.70656,9.80286 4.34447,20.995251 5.10756,32.644073" />
    <circle
       style="fill:#ffffff;fill-opacity:1;stroke:#000000;stroke-width:2.5;stroke-linecap:round;stroke-linejoin:bevel;stroke-miterlimit:4;stroke-dasharray:none;stroke-opacity:1"
       id="path1083-2"
       cx="-131.87279"
       cy="54.50864"
       r="11.359909"
       transform="scale(-1,1)" />
    <circle
       style="fill:#000000;fill-opacity:1;stroke:none;stroke-width:2.5;stroke-linecap:round;stroke-linejoin:bevel;stroke-miterlimit:4;stroke-dasharray:none;stroke-opacity:1"
       id="path1152-9"
       cx="-131.71907"
       cy="54.347507"
       r="7.2754445"
       transform="scale(-1,1)" />
  </g>
</svg>
